<?xml version="1.0" encoding="UTF-8"?>
<svg id="Layer_1" data-name="Layer 1" xmlns="http://www.w3.org/2000/svg" viewBox="0 0 800 800">
  <rect x="-21.49" y="-21.49" width="842.99" height="842.99" fill="#043249"/>
  <g>
    <path d="M643.95,430.81s.02-.03.01-.05c-1.33-3.49-19.47-8.88-23.65-10.08-19.94-5.71-41.49-8.19-63.17-10.07l-14.88-.75c-4.23-.23-10.98-.07-14.64-1.26-5.47-1.79-17.04-11.84-23.4-15.32-17.91-9.8-32.3-12.88-54.52-15.08-41.44-4.1-81.24-3.69-125.91,7.29-37.5,9.22-74.3,25.97-110.76,42.11-17.25,7.64-34.67,14.74-51.47,24.08l65.14-16.01c25.78-5.37,51.29-8.51,76.85-11.93,9.92-9.24,21.08-16.5,32.49-23.54,1.11.69-.8,2.12-1.46,2.89-1.65,1.96-15.56,18.39-14.97,19.1,28.39-2.45,56.25-3.1,83.96-2.67,5.66.09,11.89,2.86,18.35-1.28-6.99-10.56-13.76-14.88-29.06-13.63-4.49.37-7.6,2.34-18.95,1.71-13.53-1.12-28.48.48-43.86,7.08-.56-1.17,16.3-22.37,18.8-23.6,20.54-3.98,41.79-7.78,58.83-.83,14.25,5.81,25.33,17.01,36.93,26.01,43.53-2.79,84.69-2.52,124.87,4.86,41.21,8.16,57.77,18.06,61.48,19.91,4.82-1.96,10.58-6.87,12.54-8.57.12-.1.22-.17.31-.22-16.98,34.19-81.94,37.04-81.94,37.04,0,0-1.72,1.12-4.34,2.84,9.48,4.42,18.7,9.69,26.54,15.9,18.52-4.01,34.57-7.73,34.57-7.73,0,0,31.11-43.09,25.3-48.18Z" fill="#feb71b"/>
    <path d="M491.29,200.39l-77.77-.33-142.4,178.62c51.97-26.29,111.96-33.99,111.96-33.99,0,0,106.56-144.67,108.2-144.31Z" fill="#feb71b"/>
    <polygon points="558.46 398.91 491.29 200.39 528.46 396.74 558.46 398.91" fill="#feb71b"/>
    <path d="M541.5,481.42c-16.68-8.91-35-15.72-54.4-20.76-54.14-14.06-116.68-14.33-175.21-7.83-26.42,2.94-65.32,11.81-101.53,23.71l-20.42,35.15c24.98-11.08,50.6-20.78,77.2-27.36,42.86-10.15,86.78-16.8,130.86-16.87,6.05-.01,12.09.1,18.14.34,40.42,1.6,81.58,9.31,118.6,25.9,1.39.62,2.78,1.26,4.16,1.91,15.94,7.5,31.07,16.67,44.98,27.79l.02.02v.02s.02.06.02.06c.02.12.45,2.28.45,2.28,0,0-.57-2.23-.59-2.28-.35-.25-.71-.48-1.06-.73-15.81-11.13-33.03-20.14-51.11-26.9-78.93-29.2-166.25-20.39-245.93,1.29-33.15,8.06-64.59,21.06-95.11,36.41-6.45,3.19-12.76,6.48-19.05,9.81l-14.87,25.6-1.31,2.26,34.06-.02c37.74-30.7,165.46-83.16,279.91-78.79l7.69,78.82h117.01l-9.15-47.17-.41-2.1-2.13-10.99c-6.31-6.18-13.12-11.82-20.35-16.95-.99-.7-1.99-1.4-3-2.08-5.59-3.8-11.42-7.3-17.47-10.54Z" fill="#feb71b"/>
    <path d="M547.03,461.36c11.49-2.53,23.43-6.72,34.81-9.84,4.02-1.1,8.26-1.98,12.32-2.95-35.32-10.43-73.44-11.56-109.16-1.56l10.2,1.25c8.71,1.74,16.89,5.31,25.09,8.58,1.23.49,2.34.96,3.37,1.41,5.79,2.52,8.73,4.24,13.56,4.35,2.52.06,5.57-.32,9.81-1.25ZM522.37,452.65c-.8-.4-.67-1.19-.79-1.25-3.65-1.81-7.98-2.58-11.61-4.44,8.45-.4,17.17-2.32,25.63-1.79.75.05,9.95,1.11,8.96,2.9-4.59.55-9.82.89-14.29,1.99-.56.14-2.41.35-2.04,1.2,5.29-.69,11.05-1.04,16.35-.41,2.15.26,8.15,1.41,9.81,2.42.73.44.92.61,1.07,1.52-5.39,1.71-11.54,3.85-17.22,3.74-5.44-.11-11.05-3.47-15.88-5.89Z" fill="#feb71b"/>
  </g>
</svg>
