<?xml version="1.0" encoding="UTF-8"?>
<svg id="Layer_1" data-name="Layer 1" xmlns="http://www.w3.org/2000/svg" viewBox="0 0 1098.58 296.68">
  <rect x="-11.08" y="-2.75" width="1120.74" height="302.18" fill="#043249"/>
  <g>
    <g>
      <path d="M183.68,162.96s0,0,0-.01c-.38-1-5.57-2.54-6.76-2.88-5.7-1.63-11.87-2.34-18.07-2.88l-4.26-.21c-1.21-.07-3.14-.02-4.19-.36-1.56-.51-4.87-3.39-6.69-4.38-5.12-2.8-9.24-3.68-15.59-4.31-11.85-1.17-23.24-1.06-36.02,2.08-10.73,2.64-21.25,7.43-31.68,12.05-4.93,2.18-9.92,4.22-14.72,6.89l18.63-4.58c7.37-1.54,14.67-2.43,21.98-3.41,2.84-2.64,6.03-4.72,9.29-6.73.32.2-.23.61-.42.83-.47.56-4.45,5.26-4.28,5.46,8.12-.7,16.09-.89,24.01-.76,1.62.03,3.4.82,5.25-.37-2-3.02-3.93-4.26-8.31-3.9-1.29.11-2.17.67-5.42.49-3.87-.32-8.15.14-12.54,2.02-.16-.33,4.66-6.4,5.38-6.75,5.87-1.14,11.95-2.23,16.83-.24,4.07,1.66,7.25,4.86,10.56,7.44,12.45-.8,24.22-.72,35.72,1.39,11.79,2.33,16.52,5.17,17.59,5.7,1.38-.56,3.03-1.97,3.59-2.45.03-.03.06-.05.09-.06-4.86,9.78-23.44,10.59-23.44,10.59,0,0-.49.32-1.24.81,2.71,1.26,5.35,2.77,7.59,4.55,5.3-1.15,9.89-2.21,9.89-2.21,0,0,8.9-12.33,7.24-13.78Z" fill="#feb71b"/>
      <path d="M149.61,98.48l-28.91.3-40.73,51.09c14.87-7.52,38.69-10.12,38.69-10.12,0,0,30.48-41.38,30.95-41.28Z" fill="#feb71b"/>
      <polygon points="162.16 155.67 149.61 98.48 153.58 155.05 162.16 155.67" fill="#feb71b"/>
      <path d="M157.31,179.27c-4.77-2.55-10.01-4.5-15.56-5.94-15.49-4.02-33.37-4.1-50.12-2.24-7.56.84-18.68,3.38-29.04,6.78l-5.84,10.05c7.15-3.17,14.47-5.94,22.08-7.83,12.26-2.9,24.82-4.8,37.43-4.83,1.73,0,3.46.03,5.19.1,11.56.46,23.33,2.66,33.92,7.41.4.18.79.36,1.19.55,4.56,2.14,8.89,4.77,12.87,7.95h0s0,.01,0,.01c0,0,0,.02,0,.02,0,.03.13.65.13.65,0,0-.16-.64-.17-.65-.1-.07-.2-.14-.3-.21-4.52-3.18-9.45-5.76-14.62-7.69-22.58-8.35-47.55-5.83-70.34.37-9.48,2.3-18.48,6.03-27.2,10.42-1.84.91-3.65,1.85-5.45,2.81l-4.25,7.32-.37.65h9.74c10.79-8.79,47.33-23.79,80.06-22.54l2.2,22.55h33.47l-2.62-13.49-.12-.6-.61-3.14c-1.8-1.77-3.75-3.38-5.82-4.85-.28-.2-.57-.4-.86-.6-1.6-1.09-3.27-2.09-5-3.01Z" fill="#feb71b"/>
      <path d="M155.96,171.7c3.29-.72,6.7-1.92,9.96-2.81,1.15-.32,2.36-.57,3.52-.84-10.1-2.98-21.01-3.31-31.22-.45l2.92.36c2.49.5,4.83,1.52,7.18,2.46.35.14.67.28.96.4,1.66.72,2.5,1.21,3.88,1.25.72.02,1.59-.09,2.81-.36ZM148.9,169.21c-.23-.11-.19-.34-.23-.36-1.04-.52-2.28-.74-3.32-1.27,2.42-.12,4.91-.66,7.33-.51.22.01,2.84.32,2.56.83-1.31.16-2.81.25-4.09.57-.16.04-.69.1-.58.34,1.51-.2,3.16-.3,4.68-.12.62.07,2.33.4,2.81.69.21.13.26.18.3.44-1.54.49-3.3,1.1-4.92,1.07-1.56-.03-3.16-.99-4.54-1.68Z" fill="#feb71b"/>
    </g>
    <g>
      <path d="M271.22,169.35c-1.93,8.63-4.46,16.96-10.41,23.8-8.78,10.41-23.65,14.58-36.6,14.58-2.53,0-9.22-.15-16.51-2.23-13.09-3.72-19.19-11.45-21.57-16.36-1.19-2.38-2.83-7.14-2.83-13.98,0-5.65,1.04-10.71,2.23-16.36l13.09-58.46h26.33l-14.28,64.11c-.3,1.04-1.04,4.31-1.04,7.88,0,1.93.3,3.57,1.04,5.21,1.49,3.27,6.1,7.74,14.58,7.74,5.21,0,12.35-1.19,17.26-12.05.89-2.08,1.79-3.72,2.83-8.18l15.17-64.71h26.18l-15.47,69.02Z" fill="#feb71b"/>
      <path d="M371.92,120.7h-27.22l-19.04,84.64h-26.33l19.04-84.64h-28.86l5.21-20.38h82.41l-5.21,20.38Z" fill="#feb71b"/>
      <path d="M461.18,175.6c-2.83,5.36-5.65,9.07-6.99,10.86-4.17,5.21-13.39,15.77-30.2,19.79-2.38.59-8.18,1.64-15.02,1.64-19.34,0-30.79-7.74-36.15-13.54-4.46-4.91-10.56-15.17-10.56-32.13,0-7.29,1.34-13.69,1.93-16.07,3.42-13.54,11.01-27.52,21.87-36.45,2.68-2.23,8.03-6.1,16.36-8.93,3.27-1.19,10.86-3.27,20.38-3.27,13.09,0,25.73,3.87,34.81,12.94,11.75,11.9,11.9,26.33,11.9,31.98,0,6.1-.89,18.89-8.33,33.17ZM441.09,130.52c-3.72-8.03-12.64-12.05-21.57-11.6-3.27.15-6.25,1.04-7.14,1.34-5.8,1.93-13.24,6.55-18.59,19.49-2.83,6.69-5.06,16.51-5.06,23.65,0,3.87.45,7.14,1.78,10.56,3.42,8.63,10.86,13.39,20.08,13.24,8.33,0,14.28-4.17,16.51-5.95,10.56-8.48,16.21-26.33,16.21-38.97,0-1.64,0-6.99-2.23-11.75Z" fill="#feb71b"/>
      <path d="M553.55,147.03c-2.08,1.04-4.17,1.79-8.48,2.98,1.04.45,6.99,2.98,10.56,6.1,4.76,4.02,7.14,10.71,7.14,17.55,0,1.79-.15,4.91-1.49,8.92-4.02,12.35-13.69,17.41-17.7,19.19-5.21,2.23-9.22,3.57-19.79,3.57h-58.46l23.8-105.02h47.31c7.74,0,15.17.74,21.42,5.65.89.6,3.12,2.53,4.76,5.21,1.49,2.23,3.87,6.99,3.87,13.98,0,9.52-4.46,17.55-12.94,21.87ZM528.56,161.46c-2.23-.74-5.21-.74-5.8-.74h-21.87l-5.65,25.29h22.76c6.25,0,11.45-.6,15.17-5.95,1.64-2.53,2.38-5.5,2.38-8.63,0-6.69-4.61-9.22-6.99-9.97ZM538.82,122.64c-1.04-1.19-2.53-2.08-2.97-2.23-2.23-1.04-6.25-1.19-6.55-1.19h-19.04l-5.06,22.46h19.49c5.21,0,10.71-.6,13.98-5.21.74-1.04,2.23-3.72,2.23-7.59,0-1.04-.15-4.02-2.08-6.25Z" fill="#feb71b"/>
      <path d="M663.77,148.37c-1.79,3.12-4.17,6.1-6.99,8.33-3.42,2.53-6.99,4.17-15.17,6.99l17.11,41.65h-28.56l-13.83-37.64h-18.3l-8.63,37.64h-26.03l23.8-105.02h46.26c2.23,0,4.31,0,6.55.15,2.98.3,9.82.89,16.66,5.65,4.61,3.27,11.6,10.26,11.6,24.69,0,3.12-.45,10.41-4.46,17.55ZM639.97,124.12c-2.68-3.42-5.8-4.61-13.24-4.61h-17.7l-6.55,28.71h22.02c.59,0,3.27-.15,5.65-.6,4.61-1.04,7.59-3.42,9.82-7.44,2.08-3.87,2.23-6.99,2.23-8.78,0-1.19,0-4.46-2.23-7.29Z" fill="#feb71b"/>
      <path d="M687.72,205.35h-26.18l23.5-105.02h26.18l-23.5,105.02Z" fill="#feb71b"/>
      <path d="M771.32,201.33c-7.88,2.83-15.32,4.02-32.43,4.02h-38.53l23.95-105.02h41.5c2.83,0,5.5.45,8.18.74,11.16,1.49,17.26,5.06,21.12,8.18,6.25,4.91,13.09,13.83,13.09,32.73,0,26.03-12.79,50.73-36.89,59.35ZM776.82,126.95c-2.68-3.12-5.65-4.46-6.99-4.91-2.83-1.04-5.51-1.64-11.6-1.64h-13.09l-14.58,64.71h11.6c8.78,0,17.4-.6,24.4-6.55,5.36-4.76,15.02-17.11,14.88-36.6,0-8.33-2.08-12.2-4.61-15.02Z" fill="#feb71b"/>
      <path d="M903.56,205.35h-23.5l1.93-8.78c-.15,0-4.02,3.87-6.4,5.65-3.12,2.23-9.97,5.95-19.93,5.95-11.3-.15-23.35-4.76-31.09-12.94-4.76-5.06-12.2-15.92-12.2-34.66,0-15.62,5.51-31.39,14.88-42.99,6.1-7.59,19.19-20.08,44.03-20.08,14.43,0,30.64,5.06,39.42,17.11,3.12,4.31,4.02,7.29,5.65,12.35l-24.99,6.55c-.74-2.38-1.49-5.06-2.83-7.14-2.08-3.27-7.74-8.18-17.4-8.18-8.78,0-15.77,4.02-21.12,11.01-6.4,8.33-9.67,20.83-9.67,31.09,0,1.93,0,6.1,1.49,11.16,2.98,10.26,10.86,16.66,21.87,16.66,7.44,0,15.32-3.27,19.64-9.52,2.08-2.98,3.27-6.55,4.31-9.97h-21.87l4.46-20.08h46.12l-12.79,56.83Z" fill="#feb71b"/>
      <path d="M1012.74,120.41h-49.83l-4.61,20.38h48.05l-4.31,19.19h-48.05l-5.8,25.44h57.27l-4.31,19.93h-83.3l23.95-105.02h75.57l-4.61,20.08Z" fill="#feb71b"/>
    </g>
  </g>
</svg>