<?xml version="1.0" encoding="UTF-8"?>
<svg id="Layer_1" data-name="Layer 1" xmlns="http://www.w3.org/2000/svg" viewBox="0 0 800 800">
  <rect x="-22.16" y="-23.9" width="842.99" height="842.99" fill="#043249"/>
  <g>
    <path d="M114.26,632.13l-.19-9.69h-19.66l-5.7,9.69h-24.02l40.64-67.04h23.45l7.22,67.04h-21.75ZM113.31,584.66l-11.87,23.17h12.34l-.47-23.17Z" fill="#feb71b"/>
    <path d="M206.36,606.02c-.47,2.28-1.04,4.27-1.42,5.89-1.33,5.51-3.13,9.31-5.98,12.63-5.51,6.36-13.29,9.31-25.26,9.31-8.74,0-14.43-1.52-19.66-5.13-5.41-3.8-7.88-8.64-7.88-15.48,0-3.04.38-6.17,1.42-10.73l8.36-37.41h20.99l-8.64,38.36c-1.04,4.46-1.23,6.08-1.23,7.79,0,4.08,3.23,6.93,7.98,6.93,2.47,0,4.65-.85,6.17-2.28,1.8-1.71,2.94-4.37,4.37-10.92l8.93-39.88h20.89l-9.02,40.93Z" fill="#feb71b"/>
    <path d="M274.44,579.91h-16.43l-11.87,52.23h-21.08l11.96-52.23h-17.66l3.7-14.81h55.07l-3.7,14.81Z" fill="#feb71b"/>
    <path d="M334.64,619.88c-2.75,3.42-5.79,6.17-9.02,8.17-5.89,3.7-13.96,5.79-22.5,5.79-19.85,0-31.53-10.92-31.53-29.63,0-10.16,4.18-21.08,11.01-28.77,7.12-7.88,17.66-12.25,29.91-12.25,18.9,0,31.62,11.01,31.62,28.11v.85c0,10.44-3.32,20.23-9.5,27.73ZM310.61,579.34c-4.18,0-6.93.95-9.97,3.99-4.56,4.56-7.69,13.29-7.69,21.27,0,8.45,4.65,13.67,12.15,13.67,9.97,0,17.85-11.3,17.85-25.54,0-8.36-4.65-13.39-12.34-13.39Z" fill="#feb71b"/>
    <path d="M399.01,596.81c7.22,2.37,11.3,7.69,11.3,14.91,0,12.25-9.97,20.42-24.88,20.42h-42.35l15.19-67.04h35.23c12.44,0,19.18,5.6,19.18,15.86,0,8.17-4.46,13.39-13.67,15.86ZM386.95,606.31c-1.42-1.52-3.04-1.9-7.41-1.9h-10.07l-2.85,13.48h11.39c4.75,0,6.93-.57,8.64-2.18,1.23-1.14,1.99-3.04,1.99-4.84s-.57-3.32-1.71-4.56ZM384.29,579.24h-8.74l-2.47,11.68h8.93c6.74,0,9.78-1.99,9.78-6.17,0-3.7-2.47-5.51-7.5-5.51Z" fill="#feb71b"/>
    <path d="M476.49,598.04c-2.75,3.42-5.41,5.13-11.87,7.41l11.96,26.68h-22.6l-8.83-24.02h-7.6l-5.51,24.02h-20.79l15.19-67.04h26.49c7.5,0,10.45.19,13.58.76,8.74,1.52,14.34,8.83,14.34,18.61,0,5.13-1.52,9.97-4.37,13.58ZM450.95,579.24h-6.84l-3.42,15.19h7.79c3.99,0,6.46-.38,8.17-1.23,2.56-1.23,4.08-3.89,4.08-7.12,0-4.75-2.94-6.84-9.78-6.84Z" fill="#feb71b"/>
    <path d="M500.98,632.13h-20.99l15.29-67.04h20.99l-15.29,67.04Z" fill="#feb71b"/>
    <path d="M563.27,627.39c-3.42,1.8-7.03,3.04-10.63,3.61-4.56.76-11.3,1.14-19.56,1.14h-23.45l15.29-67.04h26.49c21.27,0,31.53,8.74,31.53,26.97,0,15.57-7.41,28.87-19.66,35.32ZM555.77,581.24c-2.18-1.33-5.6-1.99-10.07-1.99h-3.23l-8.83,38.55h2.56c9.02,0,13.58-1.23,17.57-4.94,4.75-4.37,7.6-11.96,7.6-19.94,0-5.32-1.99-9.5-5.6-11.68Z" fill="#feb71b"/>
    <path d="M649.77,632.13h-20.13l1.14-4.84c-1.23,1.23-2.94,2.56-4.46,3.61-2.66,1.8-7.5,3.04-12.06,3.04-15.76,0-26.4-12.15-26.4-30.2,0-10.35,3.51-20.23,9.78-27.63,7.31-8.55,17.19-12.82,29.82-12.82,8.55,0,15.95,2.09,21.37,6.08,4.37,3.13,7.03,6.84,9.4,12.72l-18.23,5.89c-1.61-5.41-6.36-8.74-12.63-8.74-10.45,0-18.23,9.97-18.23,23.36,0,10.16,5.22,16.81,13.1,16.81,5.51,0,9.4-2.75,11.58-8.36l.47-1.23h-11.96l3.42-15.19h32.47l-8.45,37.51Z" fill="#feb71b"/>
    <path d="M720.98,579.91h-30.29l-2.37,10.35h29.15l-3.32,14.72h-29.15l-2.85,12.25h35.04l-3.23,14.91h-56.12l15.29-67.04h51.18l-3.32,14.81Z" fill="#feb71b"/>
  </g>
  <g>
    <path d="M670.68,369.82s.02-.03.01-.05c-1.33-3.49-19.47-8.88-23.65-10.08-19.94-5.71-41.49-8.19-63.17-10.07l-14.88-.75c-4.23-.23-10.98-.07-14.64-1.26-5.47-1.79-17.04-11.84-23.4-15.32-17.91-9.8-32.3-12.88-54.52-15.08-41.44-4.1-81.24-3.69-125.91,7.29-37.5,9.22-74.3,25.97-110.76,42.11-17.25,7.64-34.67,14.74-51.47,24.08l65.14-16.01c25.78-5.37,51.29-8.51,76.85-11.93,9.92-9.24,21.08-16.5,32.49-23.54,1.11.69-.8,2.12-1.46,2.89-1.65,1.96-15.56,18.39-14.97,19.1,28.39-2.45,56.25-3.1,83.96-2.67,5.66.09,11.89,2.86,18.35-1.28-6.99-10.56-13.76-14.88-29.06-13.63-4.49.37-7.6,2.34-18.95,1.71-13.53-1.12-28.48.48-43.86,7.08-.56-1.17,16.3-22.37,18.8-23.6,20.54-3.98,41.79-7.78,58.83-.83,14.25,5.81,25.33,17.01,36.93,26.01,43.53-2.79,84.69-2.52,124.87,4.86,41.21,8.16,57.77,18.06,61.48,19.91,4.82-1.96,10.58-6.87,12.54-8.57.12-.1.22-.17.31-.22-16.98,34.19-81.94,37.04-81.94,37.04,0,0-1.72,1.12-4.34,2.84,9.48,4.42,18.7,9.69,26.54,15.9,18.52-4.01,34.57-7.73,34.57-7.73,0,0,31.11-43.09,25.3-48.18Z" fill="#feb71b"/>
    <path d="M518.02,139.4l-77.77-.33-142.4,178.62c51.97-26.29,111.96-33.99,111.96-33.99,0,0,106.56-144.67,108.2-144.31Z" fill="#feb71b"/>
    <polygon points="585.2 337.93 518.02 139.4 555.2 335.76 585.2 337.93" fill="#feb71b"/>
    <path d="M568.24,420.44c-16.68-8.91-35-15.72-54.4-20.76-54.14-14.06-116.68-14.33-175.21-7.83-26.42,2.94-65.32,11.81-101.53,23.71l-20.42,35.15c24.98-11.08,50.6-20.78,77.2-27.36,42.86-10.15,86.78-16.8,130.86-16.87,6.05-.01,12.09.1,18.14.34,40.42,1.6,81.58,9.31,118.6,25.9,1.39.62,2.78,1.26,4.16,1.91,15.94,7.5,31.07,16.67,44.98,27.79l.02.02v.02s.02.06.02.06c.02.12.45,2.28.45,2.28,0,0-.57-2.23-.59-2.28-.35-.25-.71-.48-1.06-.73-15.81-11.13-33.03-20.14-51.11-26.9-78.93-29.2-166.25-20.39-245.93,1.29-33.15,8.06-64.59,21.06-95.11,36.41-6.45,3.19-12.76,6.48-19.05,9.81l-14.87,25.6-1.31,2.26,34.06-.02c37.74-30.7,165.46-83.16,279.91-78.79l7.69,78.82h117.01l-9.15-47.17-.41-2.1-2.13-10.99c-6.31-6.18-13.12-11.82-20.35-16.95-.99-.7-1.99-1.4-3-2.08-5.59-3.8-11.42-7.3-17.47-10.54Z" fill="#feb71b"/>
    <path d="M573.77,400.38c11.49-2.53,23.43-6.72,34.81-9.84,4.02-1.1,8.26-1.98,12.32-2.95-35.32-10.43-73.44-11.56-109.16-1.56l10.2,1.25c8.71,1.74,16.89,5.31,25.09,8.58,1.23.49,2.34.96,3.37,1.41,5.79,2.52,8.73,4.24,13.56,4.35,2.52.06,5.57-.32,9.81-1.25ZM549.11,391.66c-.8-.4-.67-1.19-.79-1.25-3.65-1.81-7.98-2.58-11.61-4.44,8.45-.4,17.17-2.32,25.63-1.79.75.05,9.95,1.11,8.96,2.9-4.59.55-9.82.89-14.29,1.99-.56.14-2.41.35-2.04,1.2,5.29-.69,11.05-1.04,16.35-.41,2.15.26,8.15,1.41,9.81,2.42.73.44.92.61,1.07,1.52-5.39,1.71-11.54,3.85-17.22,3.74-5.44-.11-11.05-3.47-15.88-5.89Z" fill="#feb71b"/>
  </g>
</svg>
