<?xml version="1.0" encoding="UTF-8"?>
<svg id="Layer_1" data-name="Layer 1" xmlns="http://www.w3.org/2000/svg" viewBox="0 0 1098.58 296.68">
  <rect x="-11.08" y="-2.75" width="1120.74" height="302.18" fill="#043249"/>
  <g>
    <path d="M329.28,190.98l-.22-11.04h-22.39l-6.49,11.04h-27.37l46.3-76.38h26.72l8.22,76.38h-24.77ZM328.2,136.89l-13.52,26.4h14.06l-.54-26.4Z" fill="#feb71b"/>
    <path d="M434.21,161.23c-.54,2.6-1.19,4.87-1.62,6.71-1.51,6.27-3.57,10.6-6.82,14.39-6.27,7.25-15.15,10.6-28.78,10.6-9.95,0-16.44-1.73-22.39-5.84-6.17-4.33-8.98-9.84-8.98-17.63,0-3.46.43-7.03,1.62-12.23l9.52-42.62h23.91l-9.84,43.71c-1.19,5.08-1.41,6.92-1.41,8.87,0,4.65,3.68,7.9,9.09,7.9,2.81,0,5.3-.97,7.03-2.6,2.06-1.95,3.35-4.98,4.98-12.44l10.17-45.44h23.8l-10.28,46.63Z" fill="#feb71b"/>
    <path d="M511.78,131.48h-18.72l-13.52,59.5h-24.02l13.63-59.5h-20.12l4.22-16.88h62.75l-4.22,16.88Z" fill="#feb71b"/>
    <path d="M580.36,177.03c-3.14,3.89-6.6,7.03-10.28,9.3-6.71,4.22-15.9,6.6-25.64,6.6-22.61,0-35.92-12.44-35.92-33.75,0-11.58,4.76-24.02,12.55-32.78,8.11-8.98,20.12-13.96,34.08-13.96,21.53,0,36.03,12.55,36.03,32.02v.97c0,11.9-3.79,23.04-10.82,31.59ZM552.99,130.83c-4.76,0-7.9,1.08-11.36,4.54-5.19,5.19-8.76,15.15-8.76,24.23,0,9.63,5.3,15.58,13.85,15.58,11.36,0,20.34-12.87,20.34-29.1,0-9.52-5.3-15.25-14.06-15.25Z" fill="#feb71b"/>
    <path d="M653.71,150.74c8.22,2.71,12.87,8.76,12.87,16.99,0,13.96-11.36,23.26-28.34,23.26h-48.25l17.31-76.38h40.14c14.17,0,21.85,6.38,21.85,18.07,0,9.3-5.08,15.25-15.58,18.07ZM639.97,161.55c-1.62-1.73-3.46-2.16-8.44-2.16h-11.47l-3.25,15.36h12.98c5.41,0,7.9-.65,9.84-2.49,1.41-1.3,2.27-3.46,2.27-5.52s-.65-3.79-1.95-5.19ZM636.94,130.72h-9.95l-2.81,13.31h10.17c7.68,0,11.14-2.27,11.14-7.03,0-4.22-2.81-6.27-8.55-6.27Z" fill="#feb71b"/>
    <path d="M741.98,152.14c-3.14,3.89-6.17,5.84-13.52,8.44l13.63,30.4h-25.75l-10.06-27.37h-8.66l-6.27,27.37h-23.69l17.31-76.38h30.18c8.55,0,11.9.22,15.47.87,9.95,1.73,16.34,10.06,16.34,21.2,0,5.84-1.73,11.36-4.98,15.47ZM712.88,130.72h-7.79l-3.89,17.31h8.87c4.54,0,7.36-.43,9.3-1.41,2.92-1.41,4.65-4.44,4.65-8.11,0-5.41-3.35-7.79-11.14-7.79Z" fill="#feb71b"/>
    <path d="M769.89,190.98h-23.91l17.42-76.38h23.91l-17.42,76.38Z" fill="#feb71b"/>
    <path d="M840.85,185.57c-3.89,2.06-8,3.46-12.12,4.11-5.19.87-12.87,1.3-22.29,1.3h-26.72l17.42-76.38h30.18c24.23,0,35.92,9.95,35.92,30.72,0,17.74-8.44,32.89-22.39,40.25ZM832.31,132.99c-2.49-1.51-6.38-2.27-11.47-2.27h-3.68l-10.06,43.92h2.92c10.28,0,15.47-1.41,20.01-5.63,5.41-4.98,8.66-13.63,8.66-22.72,0-6.06-2.27-10.82-6.38-13.31Z" fill="#feb71b"/>
    <path d="M939.4,190.98h-22.94l1.3-5.52c-1.41,1.41-3.35,2.92-5.08,4.11-3.03,2.06-8.55,3.46-13.74,3.46-17.96,0-30.08-13.85-30.08-34.4,0-11.79,4-23.04,11.14-31.48,8.33-9.74,19.58-14.6,33.97-14.6,9.74,0,18.18,2.38,24.34,6.92,4.98,3.57,8.01,7.79,10.71,14.5l-20.77,6.71c-1.84-6.17-7.25-9.95-14.39-9.95-11.9,0-20.77,11.36-20.77,26.61,0,11.58,5.95,19.15,14.93,19.15,6.28,0,10.71-3.14,13.2-9.52l.54-1.41h-13.63l3.89-17.31h37l-9.63,42.73Z" fill="#feb71b"/>
    <path d="M1020.54,131.48h-34.51l-2.7,11.79h33.21l-3.79,16.77h-33.21l-3.25,13.96h39.92l-3.68,16.99h-63.94l17.42-76.38h58.31l-3.79,16.88Z" fill="#feb71b"/>
  </g>
  <g>
    <path d="M101.24,197.25c.65-.9.87-1.51.73-1.87-.55.63-.81,1.26-.73,1.87Z" fill="#043249"/>
    <path d="M107.18,149.13c19.68-9.49,41.61-12.27,41.61-12.27,0,0,46.3-55.53,46.88-55.4l-28.06-.12-60.43,67.79Z" fill="#feb71b"/>
    <path d="M223.06,191.07c-1.39-.23-6.89-2.94-8.14-3.76-3.94-2.55-6.93-6.74-11.84-8.32.12-.53.54-.28.91-.31,1.25-.09,6.28-.2,7.05-1.46-.1-1.49.1-5.61-.87-6.44-1.25-1.08-10.84-2.03-10.84-2.03,0,0-5.33-2-8.07-2.22l39.03-2.14c-4.53-1.49-9.18-2.8-14.08-3.72-14.24-2.66-29.09-2.76-44.9-1.75-3.87-3.25-7.48-7.29-12.42-9.39-5.91-2.51-13.71-1.13-21.27.3-.95.44-7.77,8.1-7.61,8.52,5.78-2.38,11.24-2.96,16.08-2.55,4.08.23,5.26-.48,6.9-.62,5.57-.45,7.86,1.11,10.01,4.92-2.48,1.5-4.63.49-6.67.46-9.99-.15-20.07.08-30.4.96-.19-.26,5.41-6.19,6.07-6.89.26-.28,1.01-.8.63-1.04-4.37,2.54-8.65,5.16-12.55,8.5-9.35,1.24-18.67,2.37-28.16,4.31l-24.08,5.78c6.39-3.37,12.93-5.93,19.42-8.69,13.73-5.83,27.6-11.88,41.46-15.2,16.51-3.96,30.89-4.11,45.71-2.63,7.94.79,13.03,1.9,19.15,5.44,2.18,1.26,6,4.88,7.91,5.53,1.28.43,3.72.37,5.24.46l5.35.27c7.76.68,15.45,1.57,22.45,3.63,1.5.44,8.12,2.47,8.2,3.72.04.59-.04.66-.6,1.1-1.55,1.24-7.46,2.94-8.66,3.99-.86.75-4.54,7.29-3.13,7.29h4.76c.82,0,4.06-1.64,4.29-1.6.73.84-1.2,2.75-2.03,3.72-1.7,1.98-6.73,6.18-7.64,7.72-.47.79-.56,4.14-1.57,4.14-1.49,0-3.81.21-5.08,0Z" fill="#feb71b"/>
    <path d="M212.96,153.13l-17.29-71.66-12.46,56.31c9.46,1.11,18.22,7.01,22.63,14.83l7.13.52Z" fill="#feb71b"/>
    <g>
      <path d="M177.51,215.34v-31c-22.38-4.6-69.08,3.66-75.54,11.05-1.12-3.1-27.78,11.33-41.32,19.96h-3.19" fill="none"/>
      <path d="M101.97,195.38c6.45-7.38,53.16-15.65,75.52-11.05v31h42.25l-2.11-21.75c-20.28-21.97-59.64-24.95-95.58-20.99-9.64,1.06-23.99,4.26-37.48,8.56l-27.11,34.19h3.19c13.54-8.62,40.2-23.06,41.32-19.96Z" fill="#feb71b"/>
    </g>
    <path d="M109.9,184.5c-19.01,5.19-30.29,11.45-41.18,16.65l-11.25,14.19h16.23c20.09-15.16,102.31-44.99,144.41-17.03l-.09-.9c-6.37-5.47-35.59-31.79-108.12-12.91Z" fill="#feb71b"/>
    <path d="M217.86,198.93s-.13-.84-.13-.84c0,0,0,.02,0,.02-5.7-4.39-12.06-7.84-18.74-10.35-26.98-9.95-56.75-6.89-84.11-.08,0,0-5.18,1.35-5.18,1.35-12.04,2.94-23.46,7.69-34.65,13.05-6.53,3.12-12.75,6.46-19.33,9.64,0,0-3.32-7.32-3.32-7.32,3.18-1.39,6.43-2.94,9.7-4.46,13.18-6.16,26.68-11.98,40.86-15.57,24.68-5.86,50.61-8.87,75.72-4.09,14.17,2.74,28.11,8.31,39.09,17.8,0,0,0,0,0,0,0,0,0,0,0,0,0,0,.08.84.08.84h0Z" fill="#043249"/>
  </g>
</svg>