<?xml version="1.0" encoding="UTF-8"?>
<svg id="Layer_1" data-name="Layer 1" xmlns="http://www.w3.org/2000/svg" viewBox="0 0 800 800">
  <rect x="-22.16" y="-23.9" width="842.99" height="842.99" fill="#043249"/>
  <g>
    <path d="M114.26,632.13l-.19-9.69h-19.66l-5.7,9.69h-24.02l40.64-67.04h23.45l7.22,67.04h-21.75ZM113.31,584.66l-11.87,23.17h12.34l-.47-23.17Z" fill="#feb71b"/>
    <path d="M206.36,606.02c-.47,2.28-1.04,4.27-1.42,5.89-1.33,5.51-3.13,9.31-5.98,12.63-5.51,6.36-13.29,9.31-25.26,9.31-8.74,0-14.43-1.52-19.66-5.13-5.41-3.8-7.88-8.64-7.88-15.48,0-3.04.38-6.17,1.42-10.73l8.36-37.41h20.99l-8.64,38.36c-1.04,4.46-1.23,6.08-1.23,7.79,0,4.08,3.23,6.93,7.98,6.93,2.47,0,4.65-.85,6.17-2.28,1.8-1.71,2.94-4.37,4.37-10.92l8.93-39.88h20.89l-9.02,40.93Z" fill="#feb71b"/>
    <path d="M274.44,579.91h-16.43l-11.87,52.23h-21.08l11.96-52.23h-17.66l3.7-14.81h55.07l-3.7,14.81Z" fill="#feb71b"/>
    <path d="M334.64,619.88c-2.75,3.42-5.79,6.17-9.02,8.17-5.89,3.7-13.96,5.79-22.5,5.79-19.85,0-31.53-10.92-31.53-29.63,0-10.16,4.18-21.08,11.01-28.77,7.12-7.88,17.66-12.25,29.91-12.25,18.9,0,31.62,11.01,31.62,28.11v.85c0,10.44-3.32,20.23-9.5,27.73ZM310.61,579.34c-4.18,0-6.93.95-9.97,3.99-4.56,4.56-7.69,13.29-7.69,21.27,0,8.45,4.65,13.67,12.15,13.67,9.97,0,17.85-11.3,17.85-25.54,0-8.36-4.65-13.39-12.34-13.39Z" fill="#feb71b"/>
    <path d="M399.01,596.81c7.22,2.37,11.3,7.69,11.3,14.91,0,12.25-9.97,20.42-24.88,20.42h-42.35l15.19-67.04h35.23c12.44,0,19.18,5.6,19.18,15.86,0,8.17-4.46,13.39-13.67,15.86ZM386.95,606.31c-1.42-1.52-3.04-1.9-7.41-1.9h-10.07l-2.85,13.48h11.39c4.75,0,6.93-.57,8.64-2.18,1.23-1.14,1.99-3.04,1.99-4.84s-.57-3.32-1.71-4.56ZM384.29,579.24h-8.74l-2.47,11.68h8.93c6.74,0,9.78-1.99,9.78-6.17,0-3.7-2.47-5.51-7.5-5.51Z" fill="#feb71b"/>
    <path d="M476.49,598.04c-2.75,3.42-5.41,5.13-11.87,7.41l11.96,26.68h-22.6l-8.83-24.02h-7.6l-5.51,24.02h-20.79l15.19-67.04h26.49c7.5,0,10.45.19,13.58.76,8.74,1.52,14.34,8.83,14.34,18.61,0,5.13-1.52,9.97-4.37,13.58ZM450.95,579.24h-6.84l-3.42,15.19h7.79c3.99,0,6.46-.38,8.17-1.23,2.56-1.23,4.08-3.89,4.08-7.12,0-4.75-2.94-6.84-9.78-6.84Z" fill="#feb71b"/>
    <path d="M500.98,632.13h-20.99l15.29-67.04h20.99l-15.29,67.04Z" fill="#feb71b"/>
    <path d="M563.27,627.39c-3.42,1.8-7.03,3.04-10.63,3.61-4.56.76-11.3,1.14-19.56,1.14h-23.45l15.29-67.04h26.49c21.27,0,31.53,8.74,31.53,26.97,0,15.57-7.41,28.87-19.66,35.32ZM555.77,581.24c-2.18-1.33-5.6-1.99-10.07-1.99h-3.23l-8.83,38.55h2.56c9.02,0,13.58-1.23,17.57-4.94,4.75-4.37,7.6-11.96,7.6-19.94,0-5.32-1.99-9.5-5.6-11.68Z" fill="#feb71b"/>
    <path d="M649.77,632.13h-20.13l1.14-4.84c-1.23,1.23-2.94,2.56-4.46,3.61-2.66,1.8-7.5,3.04-12.06,3.04-15.76,0-26.4-12.15-26.4-30.2,0-10.35,3.51-20.23,9.78-27.63,7.31-8.55,17.19-12.82,29.82-12.82,8.55,0,15.95,2.09,21.37,6.08,4.37,3.13,7.03,6.84,9.4,12.72l-18.23,5.89c-1.61-5.41-6.36-8.74-12.63-8.74-10.45,0-18.23,9.97-18.23,23.36,0,10.16,5.22,16.81,13.1,16.81,5.51,0,9.4-2.75,11.58-8.36l.47-1.23h-11.96l3.42-15.19h32.47l-8.45,37.51Z" fill="#feb71b"/>
    <path d="M720.98,579.91h-30.29l-2.37,10.35h29.15l-3.32,14.72h-29.15l-2.85,12.25h35.04l-3.23,14.91h-56.12l15.29-67.04h51.18l-3.32,14.81Z" fill="#feb71b"/>
  </g>
  <g>
    <path d="M287.57,460.17c1.55-2.48,1.99-4.17,1.53-5.19-1.36,1.75-1.91,3.49-1.53,5.19Z" fill="#043249"/>
    <path d="M291.1,326.86c51.97-26.29,111.96-33.99,111.96-33.99,0,0,113.32-153.84,114.96-153.47l-77.77-.33-149.15,187.79Z" fill="#feb71b"/>
    <path d="M623.4,443.04c-3.9-.64-19.88-8.16-23.57-10.4-11.61-7.07-21.01-18.68-35.03-23.05.19-1.47,1.43-.78,2.44-.86,3.44-.26,17.33-.56,19.14-4.06-.69-4.12-1.24-15.53-4.15-17.85-3.76-3-30.59-5.64-30.59-5.64,0,0-15.3-5.55-22.94-6.14l107.54-5.91c-12.95-4.13-26.19-7.76-40-10.29-40.17-7.38-81.34-7.65-124.87-4.86-11.6-9.01-22.69-20.2-36.93-26.01-17.04-6.95-38.3-3.14-58.83.83-2.5,1.23-19.35,22.44-18.8,23.6,15.37-6.6,30.33-8.2,43.86-7.08,11.35.63,14.45-1.34,18.95-1.71,15.3-1.25,22.07,3.07,29.06,13.63-6.46,4.14-12.69,1.37-18.35,1.28-27.71-.43-55.57.22-83.96,2.67-.59-.71,13.32-17.14,14.97-19.1.65-.77,2.57-2.21,1.46-2.89-11.41,7.04-22.57,14.3-32.49,23.54-25.56,3.42-51.08,6.56-76.85,11.93l-65.14,16.01c16.79-9.34,34.21-16.44,51.47-24.08,36.46-16.14,73.26-32.9,110.76-42.11,44.67-10.98,84.47-11.39,125.91-7.29,22.21,2.2,36.6,5.28,54.52,15.08,6.37,3.49,17.94,13.53,23.4,15.32,3.66,1.2,10.41,1.03,14.64,1.26l14.88.75c21.68,1.87,43.23,4.36,63.17,10.07,4.28,1.22,23.15,6.84,23.71,10.31.26,1.63.07,1.83-1.35,3.06-3.95,3.42-19.87,8.15-22.91,11.06-2.18,2.08-10.63,20.19-6.72,20.19h13.2c2.28,0,10.8-4.55,11.46-4.42,2.24,2.34-2.58,7.63-4.62,10.3-4.18,5.48-16.97,17.13-19.09,21.37-1.09,2.18-.45,11.46-3.25,11.46-4.12,0-10.51.58-14.08,0Z" fill="#feb71b"/>
    <path d="M585.2,337.93l-67.17-198.52-19.38,156c26.51,3.06,52.36,19.41,66.67,41.08l19.88,1.44Z" fill="#feb71b"/>
    <g>
      <path d="M503.72,510.26l-8.38-85.88c-63.2-12.75-190.36,10.15-206.25,30.6-3.94-8.6-73.9,31.4-109.08,55.28h-8.84" fill="none"/>
      <path d="M289.1,454.98c15.89-20.45,143.04-43.35,206.25-30.6l8.38,85.88h117.01l-11.69-60.26c-62.08-60.86-171.92-69.11-270.42-58.16-26.42,2.94-65.32,11.81-101.53,23.71l-65.92,94.71h8.84c35.18-23.88,105.15-63.88,109.08-55.28Z" fill="#feb71b"/>
    </g>
    <path d="M308.13,424.85c-51.26,14.36-80.84,31.71-109.6,46.12l-27.35,39.3,44.95-.03c51.59-41.97,271.32-124.6,395.46-47.14l-.48-2.48c-19.11-15.14-107.16-88.07-302.98-35.77Z" fill="#feb71b"/>
    <path d="M611.1,464.8l-.59-2.31.03.04c-16.1-11.49-33.7-20.73-52.19-27.64-78.93-29.2-166.25-20.39-245.93,1.29-33.15,8.06-64.59,21.06-95.11,36.41-17.86,8.85-34.74,18.44-52.74,27.53,0,0-9.53-20.12-9.53-20.12,8.66-3.95,17.55-8.42,26.47-12.77,36.04-17.71,73.15-34.19,112.37-43.89,48.74-11.55,98.85-18.56,149.01-16.53,59.49,2.35,120.59,17.93,167.73,55.6,0,0,.02.02.02.02v.02s.46,2.34.46,2.34h0Z" fill="#043249"/>
  </g>
</svg>