<?xml version="1.0" encoding="UTF-8"?>
<svg id="Layer_1" data-name="Layer 1" xmlns="http://www.w3.org/2000/svg" viewBox="0 0 800 800">
  <path d="M634.96,614.75h-116.28l-17.38-117.08c-81.69-15.74-178.43-7.59-266.46,42.55-33.29-3.88-147.01,70.17-149.89,74.31l89.3-125.01c42.82-13.52,88.89-23.6,120.21-26.94,116.79-12.44,247.34-3.07,321.94,66.09l18.55,86.08Z" fill="#043249"/>
  <path d="M241.02,398.16c61.73-31.22,132.97-40.37,132.97-40.37,0,0,143.64-192.14,145.59-191.71l-94.36-.39-184.2,232.46Z" fill="#043249"/>
  <path d="M634.57,520.76c-4.43-.73-22.6-9.27-26.79-11.82-13.19-8.04-23.88-21.22-39.8-26.19.21-1.67,1.62-.89,2.77-.98,3.91-.3,19.7-.64,21.75-4.61-.78-4.68-1.41-17.65-4.72-20.29-4.28-3.41-34.76-6.4-34.76-6.4,0,0-17.39-6.31-26.07-6.98l122.2-6.72c-14.71-4.69-29.77-8.81-45.45-11.7-45.65-8.39-92.43-8.69-141.89-5.52-13.18-10.23-25.78-22.96-41.97-29.56-19.37-7.9-43.52-3.57-66.86.95-2.84,1.4-21.99,25.49-21.36,26.82,17.47-7.5,34.47-9.32,49.84-8.04,12.9.71,16.42-1.53,21.53-1.94,17.39-1.42,25.08,3.48,33.02,15.49-7.35,4.71-14.42,1.56-20.86,1.46-31.49-.49-63.15.25-95.41,3.04-.67-.81,15.13-19.48,17.01-21.7.74-.88,2.92-2.51,1.66-3.29-12.97,8-25.65,16.25-36.92,26.75-29.04,3.89-58.04,7.45-87.33,13.56l-74.02,18.2c19.08-10.61,38.88-18.68,58.48-27.36,41.43-18.35,83.25-37.38,125.86-47.86,50.76-12.48,95.99-12.94,143.08-8.28,25.24,2.5,41.6,5.99,61.95,17.14,7.24,3.96,20.38,15.38,26.6,17.41,4.16,1.36,11.83,1.17,16.64,1.44l16.91.85c24.64,2.13,49.12,4.96,71.78,11.44,4.86,1.39,26.3,7.77,26.95,11.72.3,1.85.08,2.08-1.54,3.48-4.49,3.89-22.58,9.26-26.04,12.57-2.47,2.36-12.07,22.95-7.63,22.95h15c2.59,0,12.27-5.18,13.02-5.02,2.55,2.66-2.93,8.67-5.25,11.71-4.75,6.22-19.29,19.46-21.7,24.29-1.24,2.48-.51,13.03-3.69,13.03-4.68,0-11.94.66-16,0Z" fill="#feb71b"/>
  <path d="M230.63,505.66l-145.68,108.87c41.31-24.48,302.39-181.38,534.66-70.98l-.61-2.82c-22.91-17.21-190.42-110.2-388.38-35.07Z" fill="#feb71b"/>
  <path d="M591.78,399.15l-72.2-233.05-39.41,187.63c30.12,3.48,66.58,24.5,88.4,45.95,0,0,24.96,10.37,25.49,10.4l-2.28-10.92Z" fill="#043249"/>
</svg>